<svg xmlns="http://www.w3.org/2000/svg" width="480" height="147" viewBox="0 0 480 147">
  <path transform="translate(2.4 107.776) scale(0.096000 -0.096000)" fill="#fb4934" d="M141 0H283V424H388V538H283V585C283 642 299 650 396 642V764C177 778 141 754 141 589V538H43L87 424H141Z"/>
  <path transform="translate(45.6 107.776) scale(0.096000 -0.096000)" fill="#fb4934" d="M224 -10C407 -10 437 29 437 268C437 506 407 545 224 545C43 545 13 506 13 268C13 29 43 -10 224 -10ZM225 118C167 118 158 139 158 268C158 396 167 417 225 417C284 417 294 396 294 268C294 139 284 118 225 118Z"/>
  <path transform="translate(88.8 107.776) scale(0.096000 -0.096000)" fill="#fb4934" d="M408 538H259V256C259 137 253 118 215 118C184 118 179 129 179 198V538H30V198C30 19 49 -10 167 -10C245 -10 261 2 283 77H286V0H408Z"/>
  <path transform="translate(132 107.776) scale(0.096000 -0.096000)" fill="#fb4934" d="M35 0H184V282C184 401 190 420 228 420C259 420 264 409 264 340V0H413V340C413 519 394 548 276 548C198 548 182 536 160 461H157V538H35Z"/>
  <path transform="translate(175.2 107.776) scale(0.096000 -0.096000)" fill="#fb4934" d="M281 0H416V734H265L266 484H262C246 536 233 545 169 545C43 545 23 506 23 268C23 29 45 -10 178 -10C249 -10 263 -1 277 52H281ZM221 118C173 118 165 139 165 269C165 397 173 418 221 418C268 418 276 397 276 269C276 139 268 118 221 118Z"/>
  <path transform="translate(218.4 107.776) scale(0.096000 -0.096000)" fill="#fb4934" d="M280 0H399V359C399 517 374 543 223 543C77 543 53 519 46 369H182C184 427 189 436 219 436C253 436 258 425 258 356V329H250C63 329 32 303 32 145C32 13 51 -9 169 -9C245 -9 260 1 276 61H280ZM258 236C254 128 246 111 204 111C177 111 173 118 173 164C173 226 180 236 224 236Z"/>
  <path transform="translate(261.6 107.776) scale(0.096000 -0.096000)" fill="#fb4934" d="M28 426H123V187C123 18 140 -10 244 -10C282 -10 304 -8 401 5V132C374 123 363 121 318 121C273 121 266 131 266 191V426H377V538H269V695L123 637V538H65Z"/>
  <path transform="translate(304.8 107.776) scale(0.096000 -0.096000)" fill="#fb4934" d="M142 641H314V804H142ZM63 0H415V119H312V538H71V419H172V119H63Z"/>
  <path transform="translate(348 107.776) scale(0.096000 -0.096000)" fill="#fb4934" d="M224 -10C407 -10 437 29 437 268C437 506 407 545 224 545C43 545 13 506 13 268C13 29 43 -10 224 -10ZM225 118C167 118 158 139 158 268C158 396 167 417 225 417C284 417 294 396 294 268C294 139 284 118 225 118Z"/>
  <path transform="translate(391.2 107.776) scale(0.096000 -0.096000)" fill="#fb4934" d="M35 0H184V282C184 401 190 420 228 420C259 420 264 409 264 340V0H413V340C413 519 394 548 276 548C198 548 182 536 160 461H157V538H35Z"/>
  <path transform="translate(434.4 107.776) scale(0.096000 -0.096000)" fill="#fb4934" d="M35 154C23 13 49 -10 218 -10C388 -10 416 12 416 149C416 278 395 301 266 321C191 333 179 342 179 384C179 424 187 430 233 430C275 430 281 425 278 392H411C415 526 390 548 231 548C67 548 40 525 40 387C40 261 62 237 194 217C265 206 277 197 277 155C277 116 270 110 224 110C174 110 166 116 167 154Z"/>
</svg>
